<?xml version="1.0"?>
<svg width="300" height="383.9999859999999" xmlns="http://www.w3.org/2000/svg" xmlns:svg="http://www.w3.org/2000/svg" xmlns:xlink="http://www.w3.org/1999/xlink" preserveAspectRatio="xMidYMid meet" version="1.0">
 <defs>
  <g id="svg_1"/>
  <clipPath id="cfa4db8569">
   <path clip-rule="nonzero" d="m293.83,35.06l395.17,0l0,319.82l-395.17,0l0,-319.82zm0,0" id="svg_2"/>
  </clipPath>
  <clipPath id="48ddfc0f90">
   <path clip-rule="nonzero" d="m415.88,169.1l51.92,0l0,51.92l-51.92,0l0,-51.92zm0,0" id="svg_3"/>
  </clipPath>
  <clipPath id="c0b084b784">
   <path clip-rule="nonzero" d="m441.84,169.1c-14.34,0 -25.96,11.62 -25.96,25.96c0,14.34 11.62,25.96 25.96,25.96c14.34,0 25.96,-11.62 25.96,-25.96c0,-14.34 -11.62,-25.96 -25.96,-25.96zm0,0" id="svg_4"/>
  </clipPath>
  <symbol clip-rule="evenodd" fill-rule="evenodd" height="474px" id="svg_24" version="1.1" width="512px" xmlns="http://www.w3.org/2000/svg" xmlns:xlink="http://www.w3.org/1999/xlink">
   <g>
    <path d="m129.5,66.5c47.01,-0.31 94.01,0.19 141,1.5c27.09,2.3 49.59,13.46 67.5,33.5c13.49,19.97 18.15,41.97 14,66c-2.44,13.33 -7.94,25.16 -16.5,35.5c-8.33,0.67 -16.67,0.67 -25,0c-0.46,-0.41 -0.79,-0.91 -1,-1.5c15.93,-25.63 19.43,-52.96 10.5,-82c-13.07,-30.3 -36.24,-45.8 -69.5,-46.5c-23,-0.5 -46,-0.67 -69,-0.5c0,43.67 0,87.33 0,131c-9.67,0.17 -19.34,0 -29,-0.5c-0.5,-0.5 -1,-1 -1.5,-1.5c-0.07,-36.69 -0.74,-73.35 -2,-110c-0.93,-5.7 -3.77,-10.2 -8.5,-13.5c-4.31,-1.98 -8.48,-4.15 -12.5,-6.5c-0.12,-1.78 0.38,-3.45 1.5,-5z" fill="#000000" opacity="0.95"/>
   </g>
   <g>
    <path d="m200.5,236.5c8.34,-0.17 16.67,0 25,0.5c12.87,2.25 17.04,9.42 12.5,21.5c-1.17,1.17 -2.33,2.33 -3.5,3.5c8.37,5.85 10.21,13.35 5.5,22.5c-2.87,2.96 -6.37,4.8 -10.5,5.5c-9.99,0.5 -19.99,0.67 -30,0.5c-1.12,-16.63 -1.29,-33.3 -0.5,-50c0.41,-1.4 0.91,-2.73 1.5,-4zm5,6c7.01,-0.17 14.01,0 21,0.5c6.55,1.94 8.72,6.1 6.5,12.5c-1.73,2.12 -3.9,3.62 -6.5,4.5c-6.99,0.5 -13.99,0.67 -21,0.5c0,-6 0,-12 0,-18zm0,24c8.34,-0.17 16.67,0 25,0.5c5.97,3.23 7.47,8.06 4.5,14.5c-1.65,1.22 -3.48,2.05 -5.5,2.5c-7.99,0.5 -15.99,0.67 -24,0.5c0,-6 0,-12 0,-18z" fill="#000000" opacity="0.83"/>
   </g>
   <g>
    <path d="m255.5,236.5c1.89,-0.2 3.39,0.46 4.5,2c6.83,12.33 14.17,24.33 22,36c6.58,-12.16 13.41,-24.16 20.5,-36c1.99,-2.42 3.83,-2.42 5.5,0c0.82,17.04 0.65,34.04 -0.5,51c-1.85,1.33 -3.35,1 -4.5,-1c-0.04,-12.1 -0.71,-24.1 -2,-36c-5.33,9.33 -10.67,18.67 -16,28c-3.2,4.16 -5.87,3.82 -8,-1c-5.41,-9.83 -11.08,-19.5 -17,-29c-0.5,13.33 -0.67,26.66 -0.5,40c-3.87,0.63 -5.71,-1.04 -5.5,-5c-0.87,-16.43 -0.37,-32.77 1.5,-49z" fill="#000000" opacity="0.85"/>
   </g>
   <g>
    <path d="m151.5,322.5c10,0 20,0 30,0c0,30.67 0,61.33 0,92c26.69,0.39 53.36,-0.11 80,-1.5c37.1,-2.77 63.93,-20.61 80.5,-53.5c4.29,-11.96 6.46,-24.3 6.5,-37c10.01,-0.17 20.01,0 30,0.5c0.81,45.88 -20.86,75.55 -65,89c-12.46,3.41 -25.13,5.74 -38,7c-47.01,0.46 -94.01,0.8 -141,1c-2,-0.33 -4,-0.67 -6,-1c-0.98,-1.78 -0.65,-3.44 1,-5c10.09,-2.43 16.59,-8.59 19.5,-18.5c1.12,-24.37 1.95,-48.7 2.5,-73z" fill="#000000" opacity="0.96"/>
   </g>
  </symbol>
 </defs>
 <g class="layer">
  <title>Layer 1</title>
  <use id="svg_25" transform="matrix(0.861223 0 0 0.913464 -82.7839 -33.3581)" x="13.06" xlink:href="#svg_24" y="5.47"/>
 </g>
</svg>