<?xml version="1.0" encoding="UTF-8"?>
<!DOCTYPE svg PUBLIC "-//W3C//DTD SVG 1.1//EN" "http://www.w3.org/Graphics/SVG/1.1/DTD/svg11.dtd">
<svg xmlns="http://www.w3.org/2000/svg" version="1.1" width="512px" height="474px" style="shape-rendering:geometricPrecision; text-rendering:geometricPrecision; image-rendering:optimizeQuality; fill-rule:evenodd; clip-rule:evenodd" xmlns:xlink="http://www.w3.org/1999/xlink">
<g><path style="opacity:0.953" fill="#000000" d="M 129.5,66.5 C 176.51,66.188 223.51,66.688 270.5,68C 297.593,70.2968 320.093,81.4634 338,101.5C 351.486,121.465 356.152,143.465 352,167.5C 349.565,180.826 344.065,192.66 335.5,203C 327.167,203.667 318.833,203.667 310.5,203C 310.043,202.586 309.709,202.086 309.5,201.5C 325.431,175.872 328.931,148.539 320,119.5C 306.93,89.1964 283.763,73.6964 250.5,73C 227.502,72.5 204.502,72.3334 181.5,72.5C 181.5,116.167 181.5,159.833 181.5,203.5C 171.828,203.666 162.161,203.5 152.5,203C 152,202.5 151.5,202 151,201.5C 150.926,164.813 150.259,128.146 149,91.5C 148.067,85.8012 145.234,81.3012 140.5,78C 136.191,76.0151 132.024,73.8485 128,71.5C 127.878,69.7184 128.378,68.0518 129.5,66.5 Z"/></g>
<g><path style="opacity:0.834" fill="#000000" d="M 200.5,236.5 C 208.84,236.334 217.173,236.5 225.5,237C 238.37,239.249 242.536,246.416 238,258.5C 236.833,259.667 235.667,260.833 234.5,262C 242.873,267.847 244.707,275.347 240,284.5C 237.125,287.463 233.625,289.296 229.5,290C 219.506,290.5 209.506,290.666 199.5,290.5C 198.377,273.865 198.21,257.198 199,240.5C 199.41,239.099 199.91,237.766 200.5,236.5 Z M 205.5,242.5 C 212.508,242.334 219.508,242.5 226.5,243C 233.052,244.938 235.218,249.104 233,255.5C 231.269,257.617 229.102,259.117 226.5,260C 219.508,260.5 212.508,260.666 205.5,260.5C 205.5,254.5 205.5,248.5 205.5,242.5 Z M 205.5,266.5 C 213.84,266.334 222.173,266.5 230.5,267C 236.475,270.23 237.975,275.063 235,281.5C 233.352,282.717 231.519,283.55 229.5,284C 221.507,284.5 213.507,284.666 205.5,284.5C 205.5,278.5 205.5,272.5 205.5,266.5 Z"/></g>
<g><path style="opacity:0.848" fill="#000000" d="M 255.5,236.5 C 257.39,236.297 258.89,236.963 260,238.5C 266.831,250.834 274.165,262.834 282,274.5C 288.58,262.337 295.414,250.337 302.5,238.5C 304.494,236.083 306.327,236.083 308,238.5C 308.819,255.544 308.652,272.544 307.5,289.5C 305.653,290.83 304.153,290.497 303,288.5C 302.96,276.404 302.293,264.404 301,252.5C 295.667,261.833 290.333,271.167 285,280.5C 281.801,284.659 279.135,284.325 277,279.5C 271.586,269.669 265.919,260.002 260,250.5C 259.5,263.829 259.333,277.163 259.5,290.5C 255.625,291.126 253.791,289.459 254,285.5C 253.13,269.067 253.63,252.734 255.5,236.5 Z"/></g>
<g><path style="opacity:0.958" fill="#000000" d="M 151.5,322.5 C 161.5,322.5 171.5,322.5 181.5,322.5C 181.5,353.167 181.5,383.833 181.5,414.5C 208.191,414.893 234.858,414.393 261.5,413C 298.597,410.227 325.43,392.394 342,359.5C 346.293,347.537 348.459,335.204 348.5,322.5C 358.506,322.334 368.506,322.5 378.5,323C 379.311,368.883 357.645,398.55 313.5,412C 301.037,415.411 288.37,417.744 275.5,419C 228.493,419.463 181.493,419.797 134.5,420C 132.5,419.667 130.5,419.333 128.5,419C 127.521,417.221 127.854,415.555 129.5,414C 139.593,411.573 146.093,405.406 149,395.5C 150.116,371.13 150.949,346.797 151.5,322.5 Z"/></g>
</svg>
