<?xml version="1.0" standalone="no"?>
<!DOCTYPE svg PUBLIC "-//W3C//DTD SVG 20010904//EN"
 "http://www.w3.org/TR/2001/REC-SVG-20010904/DTD/svg10.dtd">
<svg version="1.0" xmlns="http://www.w3.org/2000/svg"
 width="3000.000000pt" height="1682.000000pt" viewBox="0 0 3000.000000 1682.000000"
 preserveAspectRatio="xMidYMid meet">

<g transform="translate(0.000000,1682.000000) scale(0.100000,-0.100000)"
fill="#000000" stroke="none">
<path d="M12443 14394 c-7 -3 -15 -21 -19 -40 -8 -45 13 -69 76 -88 26 -8 56
-18 66 -24 11 -5 37 -17 58 -26 94 -41 175 -138 214 -256 38 -118 42 -240 42
-1280 0 -957 1 -998 18 -1014 17 -15 49 -16 303 -14 l284 3 5 1315 c3 723 6
1316 8 1318 1 1 323 2 715 2 641 0 729 -2 877 -20 171 -20 207 -27 325 -66
242 -79 411 -181 575 -345 127 -127 171 -187 244 -334 78 -158 97 -215 143
-425 25 -117 27 -141 27 -390 1 -217 -2 -279 -16 -340 -10 -41 -22 -95 -27
-120 -18 -80 -59 -208 -86 -265 -72 -154 -69 -148 -133 -243 -24 -35 -41 -70
-38 -78 4 -12 47 -14 252 -14 l247 0 32 34 c38 41 92 120 135 201 17 33 36 67
40 75 9 15 34 73 62 145 25 63 58 178 58 198 0 11 8 44 17 75 15 48 17 98 17
322 -1 250 -2 271 -27 375 -38 161 -51 207 -65 232 -6 12 -12 27 -12 33 0 13
-33 90 -62 145 -12 22 -29 53 -37 70 -29 55 -178 239 -253 313 -76 75 -192
162 -282 213 -87 48 -269 136 -306 147 -19 6 -62 21 -95 32 -120 43 -255 76
-415 100 -212 31 -320 34 -1630 36 -729 2 -1330 1 -1337 -2z"/>
<path d="M13872 10940 c-9 -15 -12 -140 -12 -524 0 -457 2 -506 17 -521 15
-15 45 -16 292 -13 229 3 285 7 331 22 78 25 119 46 156 82 46 45 60 72 73
133 23 111 -21 220 -117 284 -43 29 -55 62 -27 73 8 3 33 34 55 67 37 57 40
68 40 128 0 79 -20 128 -70 179 -94 95 -160 110 -480 110 -234 0 -246 -1 -258
-20z m590 -101 c20 -8 47 -24 58 -34 29 -26 60 -97 60 -135 0 -62 -64 -160
-105 -160 -6 0 -26 -7 -42 -15 -25 -13 -69 -15 -244 -13 l-214 3 -3 175 c-1
96 0 180 3 188 7 20 435 12 487 -9z m66 -486 c23 -11 53 -34 66 -52 48 -65 41
-204 -12 -254 -56 -51 -99 -59 -343 -65 -161 -3 -232 -1 -247 7 -21 11 -22 17
-22 189 0 129 3 182 13 191 9 10 68 12 257 9 222 -4 249 -6 288 -25z"/>
<path d="M14990 10940 c-10 -18 -12 -261 -10 -1022 0 -4 7 -14 16 -22 21 -22
61 -20 74 3 6 13 10 160 10 411 l0 391 23 -18 c13 -9 38 -42 56 -73 17 -30 36
-62 41 -70 5 -8 57 -98 115 -200 58 -102 110 -192 115 -200 6 -8 15 -26 22
-40 19 -40 50 -70 73 -70 19 0 50 31 69 70 4 8 18 33 31 55 14 22 32 54 40 70
9 17 24 44 35 60 11 17 26 44 35 60 8 17 24 44 35 60 11 17 27 44 36 60 15 30
23 44 69 120 13 22 29 53 36 68 7 17 18 27 28 25 14 -3 17 -42 21 -378 5 -402
8 -420 55 -420 55 0 55 1 55 537 0 523 -2 543 -46 543 -22 0 -74 -39 -74 -54
0 -4 -56 -104 -125 -222 -69 -117 -125 -216 -125 -218 0 -3 -13 -25 -30 -49
-16 -24 -34 -55 -40 -68 -6 -13 -19 -37 -30 -54 -11 -16 -27 -45 -35 -63 -13
-27 -21 -33 -42 -30 -24 3 -43 30 -103 143 -6 11 -21 37 -33 57 -12 20 -35 60
-51 90 -15 29 -34 60 -42 69 -8 8 -14 20 -14 25 0 5 -16 33 -35 63 -19 29 -35
55 -35 57 0 9 -121 210 -139 232 -24 28 -67 29 -81 2z"/>
<path d="M12890 9211 c-6 -13 -10 -233 -10 -654 0 -392 -4 -666 -11 -718 -11
-86 -38 -180 -67 -234 -18 -32 -122 -145 -134 -145 -4 0 -29 -13 -55 -28 -27
-16 -67 -32 -88 -36 -85 -16 -128 -71 -92 -120 12 -16 93 -17 1402 -13 1377 3
1512 6 1720 38 39 6 108 17 155 24 103 16 186 32 260 50 30 8 75 18 100 24 70
15 220 62 275 86 17 7 46 19 65 27 198 84 378 195 529 325 169 146 284 292
370 468 24 50 49 102 57 117 8 14 14 32 14 40 0 7 7 25 14 41 16 30 37 105 67
237 17 75 25 151 43 395 8 101 28 95 -304 95 -276 0 -290 -1 -300 -19 -5 -11
-10 -63 -10 -117 0 -125 -45 -386 -85 -494 -7 -19 -22 -62 -34 -95 -12 -33
-26 -67 -31 -75 -5 -8 -20 -39 -34 -68 -95 -201 -256 -399 -447 -553 -48 -38
-89 -69 -92 -69 -3 0 -27 -14 -53 -32 -55 -37 -286 -154 -364 -185 -126 -49
-348 -103 -505 -124 -44 -5 -118 -15 -165 -22 -60 -8 -303 -12 -835 -12 l-750
0 -5 930 -5 930 -292 3 c-281 2 -293 2 -303 -17z"/>
<path d="M25320 5933 c-106 -22 -176 -51 -240 -99 -72 -55 -160 -154 -160
-181 0 -4 -7 -21 -16 -38 -20 -39 -34 -166 -27 -241 8 -78 43 -144 118 -219
58 -60 161 -129 210 -141 13 -3 29 -12 36 -20 6 -8 18 -14 25 -14 13 0 75 -26
137 -56 16 -8 33 -14 39 -14 10 0 69 -25 131 -56 16 -8 33 -14 39 -14 11 0 56
-20 156 -69 68 -34 149 -97 196 -154 61 -75 70 -196 20 -283 -37 -63 -75 -92
-194 -142 -114 -49 -150 -56 -305 -56 -156 -1 -168 1 -274 52 -61 30 -143 100
-180 155 -47 69 -104 187 -115 240 -6 26 -41 50 -58 40 -5 -2 -8 -87 -8 -188
l0 -183 42 -36 c121 -104 362 -163 618 -151 172 8 348 48 401 92 8 7 20 13 26
13 5 0 21 9 34 20 111 94 163 176 186 292 15 73 15 84 -2 161 -18 81 -45 128
-110 192 -54 52 -151 114 -225 145 -14 5 -32 14 -40 19 -32 19 -108 51 -121
51 -8 0 -23 7 -33 15 -11 8 -28 15 -38 15 -10 0 -35 9 -55 20 -21 11 -43 20
-50 20 -6 0 -24 6 -40 14 -15 8 -48 23 -73 34 -186 80 -279 153 -329 256 -20
42 -23 59 -19 130 4 67 9 89 32 124 87 138 223 203 432 205 80 1 107 -2 127
-16 15 -9 31 -17 37 -17 21 0 125 -74 162 -114 43 -49 106 -135 114 -156 3 -8
19 -44 37 -80 27 -54 36 -65 57 -65 l25 0 3 140 c1 82 -2 150 -8 165 -6 14
-29 36 -53 49 -93 52 -193 101 -207 101 -9 0 -20 4 -25 9 -18 18 -208 51 -284
50 -42 -1 -110 -8 -151 -16z"/>
<path d="M3767 5913 c-18 -17 -4 -43 35 -65 80 -44 77 -12 77 -839 1 -821 3
-802 -69 -839 -40 -20 -57 -47 -41 -63 14 -14 542 -20 741 -8 177 11 207 18
329 79 123 62 189 153 226 315 34 150 -8 311 -110 425 -43 48 -188 132 -227
132 -9 0 -23 3 -32 6 -22 8 0 42 39 58 80 35 150 127 190 249 20 62 20 193 0
231 -8 15 -15 33 -15 40 0 23 -43 92 -83 134 -67 69 -133 107 -226 131 -79 20
-111 21 -456 21 -205 0 -375 -3 -378 -7z m795 -92 c103 -50 142 -94 179 -202
23 -69 30 -228 11 -252 -6 -7 -15 -31 -21 -54 -13 -47 -98 -148 -134 -159 -12
-3 -29 -12 -37 -19 -24 -22 -174 -36 -335 -33 l-150 3 -3 365 c-1 201 0 371 3
379 5 12 41 13 215 9 208 -6 209 -6 272 -37z m-53 -800 c51 -11 98 -24 104
-29 7 -5 24 -12 39 -16 44 -10 163 -134 194 -202 25 -54 27 -69 27 -189 0
-122 -2 -133 -27 -183 -45 -87 -125 -160 -226 -207 -58 -27 -261 -48 -425 -43
l-120 3 -3 430 c-1 237 0 436 3 443 8 21 322 16 434 -7z"/>
<path d="M5394 5905 c-9 -23 2 -42 32 -57 16 -7 39 -28 51 -47 l23 -34 0 -761
0 -761 -25 -36 c-13 -20 -35 -39 -49 -43 -27 -7 -43 -40 -28 -59 13 -15 388
-15 403 0 16 16 -10 51 -47 63 -58 19 -64 56 -64 377 0 247 2 282 16 287 9 3
92 6 186 6 192 0 219 -7 296 -79 44 -41 122 -158 122 -182 0 -9 7 -22 15 -29
8 -7 15 -17 15 -23 0 -5 8 -28 19 -51 36 -80 51 -117 51 -128 0 -6 9 -32 21
-57 12 -25 27 -59 35 -76 7 -16 16 -42 20 -57 12 -52 31 -59 173 -62 97 -3
135 0 148 10 25 18 9 42 -48 71 -50 27 -87 60 -100 88 -5 11 -13 27 -18 35
-18 28 -51 106 -51 119 0 7 -6 25 -14 39 -8 15 -24 50 -36 77 -12 28 -30 68
-40 90 -10 22 -19 45 -21 52 -9 26 -86 114 -136 153 -46 37 -47 61 -1 75 20 5
43 16 50 23 6 6 18 12 25 12 21 0 156 140 179 185 12 22 31 73 44 113 19 62
22 91 18 178 -2 63 -8 108 -16 116 -6 6 -12 19 -12 29 0 16 -46 110 -59 119
-3 3 -21 23 -38 46 -30 38 -143 124 -163 124 -6 0 -27 9 -47 20 -21 11 -47 20
-58 20 -11 0 -38 7 -60 15 -61 22 -803 22 -811 0z m686 -55 c125 -14 176 -36
251 -110 36 -36 76 -87 89 -113 24 -52 50 -175 50 -242 0 -61 -25 -185 -47
-230 -37 -80 -108 -165 -153 -184 -14 -6 -32 -15 -40 -20 -57 -33 -118 -41
-327 -41 l-213 0 0 469 0 470 23 4 c40 8 290 6 367 -3z"/>
<path d="M7114 5905 c-10 -24 3 -45 33 -56 16 -5 38 -24 51 -42 l22 -33 0
-765 0 -764 -25 -36 c-13 -20 -35 -39 -49 -43 -14 -3 -28 -15 -31 -27 -16 -49
-27 -48 630 -46 387 2 618 6 624 12 12 14 39 182 45 282 4 85 -5 110 -36 98
-17 -7 -38 -47 -38 -71 0 -54 -93 -167 -173 -210 -66 -35 -128 -42 -460 -50
-238 -6 -259 -5 -277 11 -19 17 -20 33 -20 410 0 291 3 394 12 403 15 15 476
17 530 1 46 -12 108 -73 108 -105 0 -28 27 -56 49 -52 14 3 16 26 16 203 l0
200 -25 -3 c-27 -3 -40 -17 -40 -47 0 -41 -43 -86 -100 -106 -47 -17 -83 -19
-286 -19 -198 0 -235 2 -248 16 -14 13 -16 63 -16 394 l0 379 22 12 c17 9 95
10 298 6 287 -6 313 -10 416 -59 38 -18 124 -97 124 -113 0 -4 6 -21 14 -38 8
-18 20 -51 25 -73 13 -48 33 -69 57 -60 15 6 16 19 10 119 -6 97 -16 178 -32
265 l-4 22 -611 0 c-533 0 -610 -2 -615 -15z"/>
<path d="M8717 5913 c-16 -16 -4 -41 30 -64 20 -13 46 -40 58 -59 20 -34 20
-48 20 -775 0 -694 -1 -743 -18 -786 -13 -33 -28 -50 -50 -60 -43 -19 -57 -46
-34 -63 22 -17 252 -15 269 2 17 17 2 39 -41 62 -72 36 -71 26 -71 807 l0 684
23 -7 c12 -3 23 -10 25 -14 1 -3 28 -41 60 -82 31 -42 64 -86 72 -98 8 -12 35
-50 60 -84 25 -33 52 -71 60 -82 8 -12 65 -90 125 -173 61 -84 133 -185 162
-224 29 -40 65 -90 80 -112 15 -22 51 -70 78 -106 28 -37 57 -76 65 -89 8 -12
40 -56 70 -96 30 -41 78 -106 105 -144 28 -39 76 -105 108 -147 31 -41 57 -80
57 -85 0 -15 44 -27 58 -16 9 8 12 185 13 822 0 923 -3 880 77 925 33 18 42
28 40 45 -3 20 -9 21 -137 24 -74 1 -140 0 -147 -2 -23 -9 -2 -44 42 -72 30
-19 48 -39 56 -64 16 -47 24 -1298 8 -1314 -7 -7 -10 -6 -10 2 0 7 -6 12 -14
12 -7 0 -37 33 -65 73 -28 39 -76 106 -106 147 -30 41 -75 104 -100 140 -25
36 -77 108 -115 160 -38 52 -75 103 -82 114 -7 10 -19 25 -27 33 -16 17 -61
82 -61 88 0 3 -8 13 -17 23 -10 10 -24 27 -31 38 -19 29 -122 172 -162 226
-19 26 -57 79 -85 118 -59 83 -146 202 -181 248 l-25 32 -118 0 c-65 0 -121
-3 -124 -7z"/>
<path d="M10556 5912 c-11 -18 7 -50 37 -63 17 -8 40 -27 51 -42 21 -28 21
-35 21 -801 0 -730 -1 -773 -18 -800 -10 -15 -31 -32 -45 -37 -35 -12 -58 -47
-42 -63 8 -8 127 -11 413 -11 349 0 408 2 442 16 22 9 71 29 109 43 38 15 95
44 125 64 57 37 184 158 211 201 8 13 22 33 31 45 8 11 26 44 38 71 12 28 29
64 37 80 7 17 17 46 20 65 4 19 11 44 17 55 6 11 16 77 22 147 13 141 1 324
-29 428 -34 116 -145 301 -231 383 -96 92 -241 178 -320 192 -22 4 -59 13 -83
21 -33 11 -124 14 -422 14 -208 0 -381 -4 -384 -8z m679 -62 c144 -14 243 -64
354 -179 74 -77 130 -155 164 -231 42 -94 57 -135 57 -157 0 -13 7 -40 16 -61
24 -54 24 -371 0 -424 -9 -21 -16 -50 -16 -66 0 -15 -7 -37 -15 -48 -8 -10
-15 -25 -15 -32 0 -17 -43 -104 -83 -168 -69 -111 -198 -229 -307 -281 -70
-34 -126 -42 -334 -50 -156 -5 -171 -4 -183 13 -18 25 -19 1664 -1 1682 14 14
235 15 363 2z"/>
<path d="M12954 5863 c-15 -32 -32 -71 -40 -86 -8 -16 -14 -34 -14 -40 0 -7
-9 -29 -20 -50 -11 -20 -20 -43 -20 -51 0 -8 -6 -27 -14 -43 -8 -15 -24 -53
-36 -83 -12 -30 -28 -68 -36 -83 -8 -16 -14 -34 -14 -40 -1 -7 -9 -30 -20 -52
-11 -22 -20 -47 -20 -55 0 -8 -7 -24 -15 -34 -8 -11 -15 -26 -15 -34 0 -8 -9
-33 -19 -56 -10 -23 -27 -61 -37 -86 -10 -25 -26 -64 -36 -87 -10 -23 -18 -48
-18 -56 0 -7 -7 -22 -15 -33 -8 -10 -15 -25 -15 -33 0 -8 -9 -32 -19 -55 -11
-23 -36 -84 -56 -136 -20 -52 -42 -108 -50 -123 -8 -16 -15 -34 -15 -40 0 -7
-9 -29 -20 -50 -11 -20 -20 -42 -20 -49 0 -12 -34 -91 -51 -118 -5 -8 -13 -24
-18 -36 -11 -25 -77 -78 -108 -88 -26 -8 -40 -43 -24 -59 17 -17 287 -18 301
-1 15 17 -5 54 -29 54 -10 0 -29 8 -42 19 -27 22 -29 70 -5 116 9 17 16 37 16
46 0 8 7 24 15 35 8 10 15 27 15 37 0 9 9 34 20 54 11 21 20 43 20 50 0 6 6
24 14 40 8 15 27 58 42 96 l27 67 372 0 372 0 21 -23 c12 -13 22 -29 22 -37 0
-12 23 -67 56 -133 8 -16 14 -33 14 -39 0 -6 9 -32 21 -57 40 -86 47 -106 64
-163 21 -68 17 -83 -29 -105 -38 -18 -53 -40 -37 -56 6 -6 89 -10 203 -11
l193 0 3 26 c3 22 -4 32 -35 51 -21 13 -43 31 -50 38 -16 20 -83 150 -83 162
0 5 -9 31 -21 56 -22 47 -29 65 -69 161 -40 96 -47 114 -69 161 -12 25 -21 51
-21 57 0 6 -6 23 -14 39 -31 62 -56 121 -56 131 0 6 -6 23 -14 39 -7 15 -20
44 -29 63 -8 19 -25 56 -36 81 -12 25 -21 49 -21 53 0 9 -35 91 -55 129 -8 16
-15 33 -15 39 0 10 -25 69 -56 131 -8 16 -14 33 -14 39 0 6 -9 32 -21 57 -22
47 -29 65 -69 161 -13 30 -29 69 -36 85 -7 17 -15 38 -18 48 -3 10 -15 17 -31
17 -21 0 -29 -9 -51 -57z m10 -280 c7 -29 25 -71 57 -135 11 -20 19 -46 19
-56 0 -11 7 -25 15 -32 8 -7 15 -21 15 -32 0 -10 8 -36 19 -56 43 -87 51 -104
51 -114 0 -10 25 -69 56 -131 8 -16 14 -33 14 -39 0 -10 18 -51 57 -134 8 -18
12 -41 8 -53 -6 -21 -10 -21 -324 -21 -372 0 -362 -2 -336 78 10 29 21 55 26
58 5 3 9 14 9 25 0 10 9 36 20 56 11 21 20 43 20 50 0 6 6 24 14 40 8 15 24
53 36 83 12 30 28 68 36 83 8 16 14 34 14 40 1 7 9 30 20 52 11 22 19 45 20
52 0 6 6 24 14 40 19 38 54 123 61 151 10 34 51 30 59 -5z"/>
<path d="M15017 5913 c-18 -17 -5 -45 26 -58 63 -26 93 -86 78 -156 -5 -24
-12 -87 -16 -139 -4 -52 -13 -126 -21 -163 -8 -38 -14 -94 -15 -125 0 -31 -4
-79 -9 -107 -5 -27 -14 -90 -20 -140 -5 -49 -16 -139 -24 -200 -18 -133 -34
-260 -51 -420 -16 -146 -30 -189 -69 -221 -73 -57 -79 -70 -43 -82 36 -12 254
-9 267 4 16 16 -7 51 -42 63 -44 16 -70 67 -64 126 13 125 35 317 45 390 15
113 29 238 46 398 8 76 17 142 20 147 3 4 10 64 15 132 16 198 49 325 65 252
8 -34 43 -130 58 -159 6 -11 14 -33 18 -50 4 -16 20 -61 34 -100 15 -38 30
-83 36 -100 5 -16 13 -39 18 -50 24 -55 51 -132 51 -145 0 -9 6 -24 14 -35 7
-11 17 -36 21 -55 4 -19 14 -44 21 -55 8 -11 14 -26 14 -35 0 -15 34 -110 53
-145 6 -11 14 -33 18 -50 4 -16 20 -61 34 -100 15 -38 30 -83 36 -100 5 -16
13 -39 19 -50 13 -27 40 -103 50 -143 4 -18 12 -38 18 -45 5 -7 12 -25 16 -42
10 -40 24 -55 52 -55 23 0 54 41 54 72 1 7 9 31 20 53 11 22 19 49 20 61 0 11
5 25 11 31 6 6 14 26 19 44 5 19 21 66 35 104 15 39 31 86 37 105 5 19 14 40
18 45 4 6 11 26 15 45 4 19 12 40 17 47 6 7 14 27 18 45 5 18 20 65 35 103 14
39 39 111 56 160 17 50 35 94 40 99 5 6 9 19 9 30 0 12 7 34 15 49 8 15 19 42
24 60 5 18 28 84 51 147 23 63 46 131 52 150 6 19 21 47 34 62 l23 28 5 -42
c3 -24 8 -79 11 -123 3 -44 9 -96 15 -114 5 -19 12 -75 16 -125 3 -50 12 -125
19 -166 7 -41 16 -115 19 -165 3 -49 10 -106 16 -125 5 -19 13 -77 16 -130 3
-52 12 -125 20 -162 8 -37 14 -114 14 -171 0 -113 -6 -127 -73 -155 -23 -10
-28 -18 -25 -39 l3 -28 199 2 c109 1 200 4 203 7 13 13 -9 56 -31 62 -53 13
-80 101 -106 349 -5 55 -14 123 -19 150 -6 28 -10 77 -10 110 -1 33 -6 76 -11
95 -6 19 -15 89 -21 155 -5 66 -14 137 -20 157 -5 20 -14 90 -19 155 -5 65
-14 136 -19 158 -5 22 -12 96 -16 165 -7 119 -6 126 15 153 12 15 38 34 57 42
27 11 34 19 31 37 -3 22 -6 23 -134 26 -106 2 -133 0 -143 -12 -13 -16 -57
-129 -71 -185 -5 -18 -13 -38 -19 -44 -6 -6 -11 -20 -11 -31 0 -12 -7 -34 -16
-51 -9 -16 -20 -43 -24 -60 -5 -16 -20 -61 -35 -100 -14 -38 -30 -85 -35 -104
-5 -18 -13 -38 -19 -44 -6 -6 -11 -20 -11 -31 0 -12 -7 -34 -15 -49 -8 -15
-19 -42 -24 -60 -5 -18 -21 -63 -36 -102 -14 -38 -30 -85 -35 -103 -4 -18 -12
-38 -18 -45 -5 -7 -13 -28 -17 -47 -4 -19 -11 -39 -15 -45 -4 -5 -13 -26 -18
-45 -6 -19 -22 -66 -37 -105 -14 -38 -30 -85 -35 -103 -4 -18 -12 -38 -18 -45
-5 -7 -13 -27 -17 -44 -3 -18 -10 -35 -15 -38 -8 -5 -60 90 -60 111 0 6 -7 25
-15 40 -8 16 -15 37 -15 46 0 9 -6 29 -14 45 -21 43 -56 137 -56 152 0 7 -6
25 -14 39 -21 42 -56 136 -56 152 0 9 -6 24 -14 35 -7 11 -17 36 -21 55 -4 19
-12 40 -17 47 -6 7 -14 27 -18 45 -11 42 -37 114 -55 155 -8 17 -15 38 -15 46
0 9 -6 28 -14 44 -21 43 -56 137 -56 152 0 7 -6 25 -14 39 -21 42 -56 136 -56
152 0 9 -6 24 -14 35 -7 11 -17 36 -21 55 -4 19 -13 38 -19 42 -14 10 -270 10
-279 1z"/>
<path d="M17844 5903 c-20 -57 -57 -149 -65 -157 -5 -6 -9 -18 -9 -28 0 -10
-9 -35 -20 -55 -11 -21 -20 -43 -20 -50 0 -6 -7 -24 -15 -40 -8 -15 -30 -71
-50 -123 -20 -52 -45 -113 -56 -136 -10 -23 -19 -47 -19 -55 0 -8 -7 -23 -15
-33 -8 -11 -15 -27 -15 -35 -1 -9 -9 -34 -20 -56 -11 -22 -19 -45 -20 -52 0
-6 -6 -24 -14 -40 -8 -15 -24 -53 -36 -83 -12 -30 -28 -68 -36 -83 -8 -16 -14
-34 -14 -40 -1 -7 -9 -30 -20 -52 -11 -22 -19 -45 -20 -52 0 -6 -6 -24 -14
-40 -8 -15 -24 -53 -36 -83 -12 -30 -28 -68 -36 -83 -8 -16 -14 -35 -14 -43 0
-8 -9 -31 -20 -51 -11 -21 -20 -45 -20 -53 0 -8 -7 -24 -15 -34 -8 -11 -15
-25 -15 -32 0 -7 -13 -33 -30 -57 -30 -45 -63 -72 -111 -93 -27 -12 -44 -50
-27 -60 5 -4 72 -8 148 -9 165 -3 191 5 147 49 -14 14 -33 26 -41 26 -9 0 -22
13 -30 28 -13 25 -13 34 1 78 8 27 21 61 29 76 8 14 14 32 14 38 0 7 9 31 19
54 29 62 91 220 91 232 0 6 8 18 18 27 17 15 58 17 385 17 319 0 368 -2 381
-16 9 -8 16 -20 16 -26 0 -10 25 -69 56 -131 8 -16 14 -33 14 -39 0 -6 9 -32
21 -57 59 -129 91 -218 87 -243 -2 -14 -15 -28 -34 -37 -41 -18 -62 -50 -42
-65 17 -12 367 -14 386 -2 21 13 13 45 -15 63 -41 25 -83 65 -83 79 0 7 -6 19
-13 26 -6 7 -23 40 -36 73 -23 59 -36 90 -71 170 -10 22 -27 65 -39 95 -24 59
-45 108 -67 153 -8 16 -14 33 -14 39 0 6 -9 30 -20 54 -11 24 -29 64 -40 88
-11 24 -20 48 -20 54 0 6 -6 23 -14 39 -31 62 -56 121 -56 131 0 6 -6 23 -14
39 -31 62 -56 121 -56 131 0 6 -6 23 -14 39 -7 15 -20 44 -29 63 -8 19 -25 56
-36 81 -12 25 -21 51 -21 58 0 7 -6 25 -14 39 -18 34 -47 100 -77 177 -38 96
-58 125 -85 125 -15 0 -27 -7 -30 -17z m53 -453 c8 -19 22 -48 29 -63 8 -16
14 -33 14 -39 0 -10 25 -69 56 -131 8 -16 14 -33 14 -39 0 -6 9 -32 21 -57 23
-50 35 -79 67 -156 11 -27 26 -63 33 -80 23 -51 26 -69 17 -87 -8 -17 -34 -18
-328 -18 -301 0 -320 1 -329 19 -11 20 2 86 19 96 6 4 10 13 10 22 0 9 9 34
19 57 10 23 27 61 37 86 10 25 26 64 36 87 10 23 18 48 18 56 0 7 7 22 15 33
8 10 15 25 15 33 0 8 9 32 19 55 30 63 91 220 91 233 0 6 12 26 26 43 l27 31
29 -73 c16 -40 36 -89 45 -108z"/>
<path d="M18977 5913 c-18 -17 -5 -44 31 -60 24 -12 44 -31 57 -58 19 -39 20
-63 23 -774 3 -833 4 -814 -68 -851 -40 -20 -57 -47 -41 -63 15 -15 390 -15
402 0 15 17 -7 53 -40 64 -59 21 -62 43 -59 369 l3 295 196 0 c174 0 199 -2
216 -17 11 -10 24 -18 29 -18 17 -1 72 -55 105 -105 46 -69 149 -279 149 -306
0 -8 7 -23 15 -33 8 -11 15 -26 15 -34 0 -8 6 -28 14 -45 37 -82 56 -131 56
-142 0 -30 31 -37 162 -39 73 -2 139 -1 146 2 15 5 16 44 0 60 -7 7 -20 12
-29 12 -28 0 -115 92 -143 152 -14 30 -26 59 -26 63 0 8 -28 72 -56 128 -8 16
-14 33 -14 38 0 6 -18 47 -41 91 -29 59 -59 101 -109 150 -38 38 -71 76 -72
85 -2 12 8 20 32 27 70 21 189 116 227 181 54 91 93 223 93 308 0 57 -28 177
-52 222 -29 54 -74 113 -123 157 -44 41 -189 118 -222 118 -11 0 -40 7 -63 15
-35 12 -111 15 -425 15 -210 0 -385 -3 -388 -7z m796 -83 c116 -41 182 -103
239 -219 30 -62 32 -74 36 -193 5 -171 -12 -241 -83 -338 -44 -61 -52 -68
-110 -108 -73 -48 -113 -55 -352 -59 l-223 -4 0 469 c0 258 3 472 8 477 4 4
102 5 217 2 179 -5 219 -9 268 -27z"/>
<path d="M20601 5911 c-10 -6 -17 -42 -23 -113 -4 -56 -12 -137 -17 -178 -10
-77 -2 -110 23 -110 15 0 56 71 56 97 0 59 120 196 184 208 17 4 49 13 71 20
55 19 243 29 261 14 12 -10 14 -146 14 -808 l0 -796 -25 -36 c-13 -20 -35 -39
-49 -43 -27 -7 -43 -40 -28 -59 14 -16 388 -15 404 1 14 14 -12 46 -51 65 -57
27 -56 2 -59 867 -2 738 -1 796 15 807 24 18 200 6 288 -20 84 -24 132 -53
166 -98 30 -40 64 -111 74 -154 12 -55 57 -86 68 -46 6 24 -9 197 -26 306
l-12 80 -660 2 c-374 2 -666 -1 -674 -6z"/>
<path d="M22284 5905 c-10 -24 4 -45 36 -56 16 -6 39 -26 50 -44 20 -32 20
-46 20 -798 0 -711 -1 -768 -17 -796 -10 -17 -30 -35 -45 -40 -35 -13 -56 -50
-36 -65 20 -15 385 -13 399 1 16 16 -6 49 -41 61 -22 8 -36 23 -50 57 -19 45
-20 71 -20 784 l0 737 23 44 c15 32 33 50 60 63 30 14 38 23 35 40 -3 22 -5
22 -206 25 -174 2 -203 0 -208 -13z"/>
<path d="M23035 5910 c-11 -17 5 -49 28 -56 39 -12 66 -45 77 -98 8 -35 10
-275 8 -781 -3 -806 -1 -775 -67 -806 -40 -19 -58 -46 -42 -62 13 -13 235 -18
268 -6 20 7 21 11 12 33 -7 14 -24 29 -40 35 -17 6 -36 25 -48 50 -21 39 -21
53 -21 746 0 388 3 705 7 705 8 0 83 -82 83 -91 0 -3 26 -41 58 -82 31 -42 80
-108 107 -147 28 -39 59 -81 70 -94 11 -14 43 -57 70 -96 28 -39 75 -104 105
-145 30 -41 78 -106 105 -145 28 -39 74 -103 102 -143 29 -39 70 -96 90 -125
21 -29 62 -84 91 -122 28 -39 52 -74 52 -78 0 -4 12 -20 28 -37 15 -16 41 -50
57 -75 17 -25 36 -51 42 -58 7 -7 29 -38 49 -68 39 -58 70 -79 92 -62 9 8 12
188 12 838 l0 827 29 40 c16 22 41 43 56 47 21 5 26 12 23 34 l-3 27 -134 3
c-74 1 -138 -1 -142 -5 -15 -15 3 -53 26 -59 13 -3 36 -19 51 -35 l29 -30 3
-642 c3 -578 1 -644 -13 -662 -12 -14 -18 -16 -22 -7 -2 7 -21 34 -41 60 -21
26 -50 65 -65 87 -88 126 -127 179 -134 184 -5 3 -20 24 -33 46 -13 21 -31 47
-40 55 -8 9 -22 27 -30 40 -8 12 -32 45 -53 74 -72 99 -143 196 -192 266 -27
39 -68 95 -90 125 -22 30 -62 86 -90 125 -80 113 -150 209 -216 298 l-62 82
-123 0 c-72 0 -125 -4 -129 -10z"/>
<path d="M14195 3043 c-86 -19 -145 -52 -205 -113 -75 -76 -110 -161 -110
-268 0 -113 38 -202 122 -285 107 -105 271 -132 441 -71 55 19 153 103 174
149 7 16 17 37 22 45 17 29 41 127 41 169 0 23 -7 58 -15 78 -8 19 -15 43 -15
52 0 27 -79 134 -125 169 -82 63 -233 97 -330 75z m173 -98 c66 -8 121 -51
176 -135 34 -52 36 -59 36 -138 0 -64 -5 -92 -21 -125 -50 -98 -111 -147 -224
-179 -43 -12 -58 -12 -110 0 -108 26 -147 51 -197 124 -46 67 -62 144 -50 235
15 112 113 205 234 223 52 7 70 7 156 -5z"/>
<path d="M15216 3025 c-80 -29 -85 -32 -154 -103 -81 -85 -96 -125 -97 -257 0
-101 2 -115 29 -170 38 -79 126 -166 191 -189 116 -41 261 -45 327 -9 112 62
137 93 97 124 -31 24 -29 24 -75 -8 -21 -14 -68 -34 -104 -43 -57 -15 -72 -15
-110 -4 -25 8 -54 14 -65 14 -32 0 -116 61 -147 105 -15 22 -37 71 -49 109
-20 67 -20 71 -4 129 35 125 128 212 241 226 94 11 177 -3 231 -39 24 -17 47
-30 52 -30 4 0 18 12 32 26 l24 26 -44 38 c-89 77 -248 100 -375 55z"/>
<path d="M17075 3027 c-60 -19 -79 -31 -136 -87 -94 -93 -119 -151 -119 -274
0 -130 23 -187 110 -276 70 -72 113 -93 225 -111 101 -17 174 -6 246 38 34 21
68 48 76 60 13 19 12 23 -13 46 l-28 26 -37 -30 c-22 -17 -66 -37 -106 -48
-65 -17 -72 -17 -139 -1 -39 10 -84 25 -100 35 -39 25 -94 76 -94 89 0 5 -6
17 -14 25 -8 9 -22 46 -32 82 -16 62 -16 68 1 132 14 52 29 78 67 122 27 30
56 55 63 55 8 0 18 6 22 14 19 34 251 37 291 4 14 -12 43 -30 70 -44 7 -4 24
4 37 16 30 28 21 50 -33 84 -106 66 -232 81 -357 43z"/>
<path d="M11273 2998 c-12 -24 -37 -77 -56 -118 -19 -41 -51 -110 -71 -152
-44 -96 -94 -203 -142 -306 -19 -42 -42 -90 -50 -105 -16 -33 -6 -40 47 -35
32 3 37 9 76 88 24 47 47 91 53 98 8 9 61 12 199 12 139 0 191 -3 199 -12 16
-20 72 -131 72 -144 0 -34 88 -61 106 -33 4 7 -2 30 -14 53 -21 43 -65 135
-127 271 -20 44 -53 114 -72 155 -19 41 -41 89 -48 105 -67 152 -77 165 -119
165 -27 0 -35 -6 -53 -42z m77 -109 c0 -7 9 -30 19 -53 11 -23 36 -77 56 -121
20 -44 43 -93 51 -109 8 -17 11 -33 6 -38 -5 -5 -76 -7 -158 -6 -173 3 -165
-5 -108 118 20 41 44 93 55 116 10 23 19 45 19 49 0 11 41 55 52 55 4 0 8 -5
8 -11z"/>
<path d="M12015 3008 c-3 -18 -4 -188 -3 -378 l3 -345 200 -3 c165 -2 207 0
240 13 112 45 175 96 212 167 47 94 53 115 53 202 0 76 -4 94 -32 153 -30 64
-115 163 -141 163 -6 0 -18 6 -26 13 -35 31 -152 47 -328 47 l-172 0 -6 -32z
m361 -58 c79 -10 142 -44 188 -103 15 -17 31 -38 37 -45 34 -41 30 -242 -5
-278 -9 -8 -16 -19 -16 -24 0 -14 -60 -80 -73 -80 -6 0 -18 -6 -26 -14 -32
-28 -187 -58 -281 -54 -49 1 -92 7 -97 11 -13 13 -16 553 -3 577 10 18 20 20
108 20 53 0 129 -5 168 -10z"/>
<path d="M12938 3034 c-9 -8 -2 -28 54 -154 11 -25 26 -58 33 -75 7 -16 27
-59 43 -95 16 -36 40 -87 52 -115 11 -27 30 -68 40 -90 33 -70 82 -179 91
-202 7 -19 16 -23 48 -23 43 0 39 -6 113 160 32 72 45 100 82 183 20 43 36 84
36 91 0 8 7 19 15 26 8 7 15 19 15 27 0 8 6 27 14 41 8 15 23 47 34 72 11 25
27 61 35 80 26 57 25 75 -2 78 -32 5 -69 -16 -77 -42 -7 -27 -16 -47 -95 -221
-17 -38 -42 -95 -56 -125 -54 -121 -66 -147 -86 -187 -12 -24 -24 -43 -27 -43
-3 0 -15 24 -28 53 -13 28 -29 66 -37 82 -7 17 -26 57 -40 90 -15 33 -33 74
-40 90 -8 17 -16 37 -19 45 -3 8 -10 22 -15 30 -5 8 -17 35 -27 59 -11 24 -32
71 -49 105 -28 56 -33 61 -65 64 -20 2 -39 0 -42 -4z"/>
<path d="M16172 3028 c-6 -6 -12 -16 -12 -21 0 -5 -25 -61 -56 -125 -31 -64
-64 -135 -74 -157 -20 -43 -79 -170 -129 -277 -17 -37 -31 -70 -31 -74 0 -4
-6 -15 -14 -23 -8 -9 -16 -27 -18 -41 -2 -20 2 -26 21 -28 48 -7 66 6 95 70
16 35 39 78 50 95 l21 33 182 0 c100 0 189 -3 198 -6 8 -4 29 -36 46 -73 50
-111 54 -116 95 -119 20 -2 40 0 45 5 4 4 -6 37 -23 73 -16 36 -38 83 -48 105
-19 41 -84 182 -125 270 -13 28 -29 61 -34 75 -6 14 -15 32 -20 40 -5 8 -18
38 -31 65 -46 106 -56 120 -92 123 -18 2 -39 -3 -46 -10z m84 -199 c18 -35 44
-91 59 -124 14 -33 33 -73 41 -88 30 -53 20 -57 -144 -57 -82 0 -152 3 -155 6
-4 4 0 19 8 33 8 14 26 53 40 86 15 33 33 74 40 90 8 17 16 37 19 45 3 8 10
22 15 30 5 8 12 23 15 33 10 31 29 14 62 -54z"/>
<path d="M17840 2659 l0 -380 38 3 37 3 3 345 c1 190 0 360 -3 378 -5 29 -9
32 -40 32 l-35 0 0 -381z"/>
<path d="M18559 3023 c-14 -16 -32 -54 -76 -153 -9 -19 -20 -42 -24 -50 -5 -8
-14 -26 -19 -40 -6 -14 -17 -38 -25 -55 -7 -16 -29 -64 -48 -105 -92 -200
-110 -238 -130 -277 -25 -50 -17 -66 34 -61 32 3 37 9 74 84 61 124 39 114
256 114 138 0 191 -3 199 -12 6 -7 30 -51 53 -98 44 -89 58 -99 113 -86 22 6
23 7 7 39 -9 17 -20 39 -25 47 -4 8 -13 26 -18 40 -14 35 -41 92 -52 110 -4 8
-11 22 -14 30 -3 8 -22 49 -41 90 -19 41 -44 95 -55 120 -123 272 -128 280
-164 280 -17 0 -37 -8 -45 -17z m58 -145 c13 -12 23 -28 23 -35 0 -8 9 -31 19
-51 31 -61 61 -129 61 -139 0 -6 7 -16 15 -23 8 -7 15 -25 15 -41 l0 -29 -149
0 c-83 0 -152 4 -155 9 -4 5 0 22 8 38 7 15 21 44 29 63 9 19 34 74 56 122 23
47 41 91 41 97 0 17 11 13 37 -11z"/>
</g>
</svg>
