<svg version="1.2" xmlns="http://www.w3.org/2000/svg" viewBox="0 0 512 474" width="512" height="474">
	<title>logo_thumbnail</title>
	<style>
		.s0 { fill: #000000 } 
	</style>
	<g>
		<path class="s0" d="m129.9 67.9c-0.4 0.2-0.8 1.1-1 2-0.4 2.2 0.7 3.4 3.8 4.4 1.3 0.4 2.7 0.8 3.2 1.1 0.6 0.3 1.9 0.9 2.9 1.3 4.6 2.1 8.6 6.8 10.6 12.7 1.8 5.8 2 11.8 2 63.2 0 47.2 0.1 49.2 0.9 50 0.9 0.8 2.4 0.8 15 0.7l14-0.1 0.2-65c0.2-35.6 0.3-64.9 0.4-65 0.1-0.1 15.9-0.1 35.3-0.1 31.6 0 35.9 0.1 43.2 1 8.5 0.9 10.2 1.3 16.1 3.2 11.9 3.9 20.2 9 28.3 17.1 6.3 6.2 8.5 9.2 12.1 16.4 3.8 7.8 4.8 10.7 7 21 1.3 5.8 1.4 7 1.4 19.3 0 10.7-0.1 13.8-0.8 16.8-0.5 2-1.1 4.7-1.4 5.9-0.9 3.9-2.9 10.3-4.2 13.1-3.6 7.6-3.4 7.3-6.6 12-1.2 1.7-2 3.4-1.8 3.8 0.2 0.6 2.3 0.7 12.4 0.7h12.2l1.5-1.7c1.9-2 4.6-5.9 6.7-9.9 0.8-1.6 1.8-3.3 2-3.7 0.4-0.7 1.7-3.6 3-7.1 1.3-3.2 2.9-8.8 2.9-9.8 0-0.6 0.4-2.2 0.8-3.7 0.8-2.4 0.9-4.9 0.9-15.9-0.1-12.4-0.1-13.4-1.4-18.5-1.8-8-2.5-10.3-3.2-11.5-0.3-0.6-0.6-1.3-0.6-1.6 0-0.7-1.6-4.5-3-7.2-0.6-1.1-1.4-2.6-1.8-3.4-1.5-2.8-8.8-11.8-12.5-15.5-3.8-3.7-9.5-8-13.9-10.5-4.3-2.4-13.3-6.7-15.1-7.3-1-0.3-3.1-1-4.7-1.5-5.9-2.2-12.6-3.8-20.5-5-10.4-1.5-15.8-1.7-80.4-1.8-35.9-0.1-65.6 0-65.9 0.1z"/>
		<path class="s0" d="m200.4 238.5c-0.5 0.7-0.6 6.9-0.6 25.9 0 22.5 0.1 24.9 0.8 25.7 0.7 0.7 2.2 0.8 14.4 0.6 11.3-0.1 14.1-0.3 16.3-1.1 3.9-1.2 5.9-2.2 7.7-4 2.3-2.2 3-3.6 3.6-6.6 1.2-5.5-1-10.8-5.7-14-2.2-1.4-2.8-3.1-1.4-3.6 0.4-0.2 1.7-1.7 2.7-3.3 1.9-2.8 2-3.4 2-6.3 0-3.9-1-6.4-3.4-8.9-4.7-4.7-7.9-5.4-23.7-5.4-11.6 0-12.1 0-12.7 1zm29.1 5c0.9 0.4 2.3 1.2 2.8 1.6 1.5 1.3 3 4.8 3 6.7 0 3.1-3.2 7.9-5.2 7.9-0.3 0-1.3 0.4-2.1 0.8-1.2 0.6-3.4 0.7-12 0.6l-10.6-0.2-0.1-8.6c-0.1-4.7 0-8.9 0.1-9.3 0.4-1 21.5-0.6 24.1 0.5zm3.2 24c1.2 0.5 2.6 1.6 3.3 2.5 2.3 3.2 2 10.1-0.6 12.6-2.8 2.5-4.9 2.9-16.9 3.2-8 0.1-11.5 0-12.2-0.4-1.1-0.5-1.1-0.8-1.1-9.3 0-6.4 0.1-9 0.6-9.4 0.5-0.5 3.4-0.6 12.7-0.5 11 0.2 12.3 0.3 14.2 1.3z"/>
		<path class="s0" d="m255.5 238.5c-0.5 0.9-0.6 12.9-0.5 50.4 0 0.2 0.4 0.7 0.8 1.1 1 1.1 3 1 3.7-0.1 0.2-0.7 0.4-7.9 0.4-20.3v-19.3l1.2 0.9c0.6 0.4 1.9 2 2.7 3.6 0.9 1.5 1.8 3 2.1 3.4 0.2 0.4 2.8 4.9 5.6 9.9 2.9 5 5.5 9.5 5.7 9.9 0.3 0.4 0.7 1.3 1.1 2 0.9 1.9 2.5 3.4 3.6 3.4 0.9 0 2.5-1.5 3.4-3.4 0.2-0.4 0.9-1.7 1.5-2.8 0.7-1 1.6-2.6 2-3.4 0.4-0.9 1.2-2.2 1.7-3 0.6-0.8 1.3-2.2 1.8-2.9 0.3-0.9 1.1-2.2 1.7-3 0.5-0.8 1.3-2.2 1.8-3 0.7-1.4 1.1-2.1 3.4-5.9 0.6-1.1 1.4-2.6 1.7-3.3 0.4-0.9 0.9-1.4 1.4-1.3 0.7 0.2 0.9 2.1 1.1 18.7 0.2 19.8 0.3 20.7 2.7 20.7 2.7 0 2.7 0 2.7-26.5 0-25.8-0.1-26.8-2.3-26.8-1.1 0-3.6 1.9-3.6 2.7 0 0.2-2.8 5.1-6.2 10.9-3.4 5.8-6.2 10.7-6.2 10.8 0 0.1-0.6 1.2-1.5 2.4-0.7 1.2-1.6 2.7-1.9 3.4-0.3 0.6-1 1.8-1.5 2.6-0.5 0.8-1.3 2.3-1.7 3.1-0.7 1.4-1.1 1.7-2.1 1.5-1.2-0.1-2.1-1.5-5.1-7-0.3-0.6-1-1.9-1.6-2.9-0.6-0.9-1.7-2.9-2.5-4.4-0.8-1.4-1.7-3-2.1-3.4-0.4-0.4-0.7-1-0.7-1.2 0-0.3-0.8-1.7-1.7-3.2-1-1.4-1.7-2.7-1.7-2.8 0-0.4-6-10.3-6.9-11.4-1.2-1.4-3.3-1.5-4-0.1z"/>
		<path class="s0" d="m151.9 323.9c-0.3 0.6-0.5 11.5-0.5 32.2 0 19.4-0.2 32.9-0.5 35.5-0.6 4.2-1.9 8.9-3.3 11.5-0.9 1.6-6 7.2-6.6 7.2-0.2 0-1.5 0.6-2.7 1.4-1.4 0.8-3.3 1.6-4.4 1.8-4.2 0.8-6.3 3.5-4.5 5.9 0.6 0.8 4.6 0.8 69.1 0.6 68-0.1 74.6-0.3 84.9-1.8 1.9-0.3 5.3-0.9 7.6-1.2 5.1-0.8 9.2-1.6 12.8-2.5 1.5-0.4 3.7-0.9 5-1.2 3.4-0.7 10.8-3 13.5-4.2 0.9-0.4 2.3-1 3.2-1.4 9.8-4.1 18.7-9.6 26.1-16 8.4-7.2 14.1-14.4 18.3-23.1 1.2-2.5 2.4-5.1 2.8-5.8 0.4-0.7 0.7-1.6 0.7-2 0-0.3 0.3-1.2 0.7-2 0.8-1.5 1.8-5.2 3.3-11.7 0.8-3.7 1.2-7.4 2.1-19.5 0.4-5 1.4-4.7-15-4.7-13.6 0-14.3 0.1-14.8 1-0.2 0.5-0.5 3.1-0.5 5.7 0 6.2-2.2 19.1-4.2 24.4-0.3 1-1.1 3.1-1.6 4.7-0.6 1.6-1.3 3.3-1.6 3.7-0.2 0.4-1 1.9-1.7 3.4-4.6 9.9-12.6 19.7-22 27.3-2.4 1.9-4.4 3.4-4.5 3.4-0.2 0-1.4 0.7-2.7 1.6-2.7 1.8-14.1 7.6-17.9 9.1-6.2 2.4-17.2 5.1-24.9 6.1-2.2 0.3-5.8 0.8-8.2 1.1-2.9 0.4-14.9 0.6-41.1 0.6h-37l-0.3-45.9-0.2-45.9-14.4-0.2c-13.9-0.1-14.5-0.1-15 0.9z"/>
	</g>
</svg>