<svg version="1.2" xmlns="http://www.w3.org/2000/svg" viewBox="0 0 2458 512" width="2458" height="512">
	<title>logo (1)</title>
	<style>
		.s0 { fill: #000000;stroke: #000000;stroke-miterlimit:10;stroke-width: .9 } 
		.s1 { fill: #000000;stroke: #000000;stroke-miterlimit:10;stroke-width: .7 } 
		.s2 { fill: #000000 } 
	</style>
	<g id="Logo">
	</g>
	<g id="&lt;Group&gt;">
		<path id="&lt;Compound Path&gt;" fill-rule="evenodd" class="s0" d="m1177.8 412.5h-29.2l-6.5 14.2h-3.9l23.2-50.5h3.7l23.2 50.5h-4zm-1.3-3.1l-13.3-29.1-13.2 29.1z"/>
		<path id="&lt;Compound Path&gt;" fill-rule="evenodd" class="s0" d="m1211.2 376.2h19.9c16.1 0 26.9 10.6 26.9 25.3 0 14.7-10.8 25.2-26.9 25.2h-19.9zm19.7 47.2c14.2 0 23.4-9.1 23.4-21.9 0-12.9-9.2-22-23.4-22h-16.1v43.9z"/>
		<path id="&lt;Compound Path&gt;" class="s0" d="m1323.2 376.2l-22.5 50.5h-3.6l-22.5-50.5h4l20.4 45.8 20.4-45.8z"/>
		<path id="&lt;Compound Path&gt;" fill-rule="evenodd" class="s0" d="m1366.1 427.1c-14.5 0-26.3-11.5-26.3-25.6 0-14.2 11.8-25.6 26.3-25.6 14.5 0 26.2 11.4 26.2 25.6 0 14.1-11.7 25.6-26.2 25.6zm22.5-25.6c0-12.3-10.1-22.2-22.5-22.2-12.5 0-22.6 9.9-22.6 22.2 0 12.3 10.1 22.2 22.6 22.2 12.4 0 22.5-9.9 22.5-22.2z"/>
		<path id="&lt;Compound Path&gt;" class="s0" d="m1414 401.5c0-14.7 11.2-25.6 26.2-25.6 7.1 0 13.5 2.3 17.9 7l-2.3 2.4c-4.3-4.3-9.6-6-15.5-6-12.9 0-22.6 9.5-22.6 22.2 0 12.7 9.7 22.2 22.6 22.2 5.9 0 11.2-1.8 15.5-6.1l2.3 2.4c-4.4 4.7-10.8 7.1-17.9 7.1-15 0-26.2-10.9-26.2-25.6z"/>
		<path id="&lt;Compound Path&gt;" fill-rule="evenodd" class="s0" d="m1514 412.5h-29.2l-6.5 14.2h-3.9l23.2-50.5h3.7l23.2 50.5h-4zm-1.3-3.1l-13.3-29.1-13.2 29.1z"/>
		<path id="&lt;Compound Path&gt;" class="s0" d="m1541.8 401.5c0-14.7 11.2-25.6 26.2-25.6 7.1 0 13.6 2.3 18 7l-2.4 2.4c-4.3-4.3-9.5-6-15.5-6-12.9 0-22.6 9.5-22.6 22.2 0 12.7 9.7 22.2 22.6 22.2 6 0 11.2-1.8 15.5-6.1l2.4 2.4c-4.4 4.7-10.9 7.1-18 7.1-15 0-26.2-10.9-26.2-25.6z"/>
		<path id="&lt;Compound Path&gt;" fill-rule="evenodd" class="s0" d="m1615.7 376.2v50.5h-3.7v-50.5z"/>
		<path id="&lt;Compound Path&gt;" fill-rule="evenodd" class="s0" d="m1678.2 412.5h-29.3l-6.4 14.2h-4l23.3-50.5h3.6l23.3 50.5h-4zm-1.4-3.1l-13.2-29.1-13.2 29.1z"/>
	</g>
	<g id="&lt;Group&gt;">
		<path id="&lt;Compound Path&gt;" fill-rule="evenodd" class="s0" d="m651.5 289.1v-98c0-8.3-3.5-9.9-7.9-11v-1.7h43.5c21.2 0 35.3 10.7 35.3 28.9 0 14.8-8.9 25.2-24.2 28.5 22.4 2.7 33.3 14.3 33.3 32.6 0 21.2-14.6 33.4-44.6 33.4h-43.3v-1.8c4.4-1.1 7.9-2.7 7.9-10.9zm34-54c16.9 0 27.2-11.2 27.2-27.8 0-16.6-10.3-27.2-27.2-27.2h-23.4v55zm-23.5 1.8v63.1h23.3c22 0 35.6-13 35.6-31.6 0-18.5-14.3-31.5-35.4-31.5z"/>
		<path id="&lt;Compound Path&gt;" fill-rule="evenodd" class="s0" d="m755.3 178.4h43.6c23.9 0 41.7 13.2 41.7 35.1 0 18.8-12.1 31.9-30.6 35.4 8.4 1.7 15.3 6.9 20.9 20.2l8.1 20c3 7.4 8.3 9.8 12.7 10.9v1.8h-19c0 0-1.9-4.8-5.1-12.7l-5.7-14.1c-6.8-17.3-12.6-25.1-28.2-25.1h-19.9v39.2c0 8.2 3.6 9.8 8 10.9v1.8h-26.5v-1.8c4.4-1.1 8-2.7 8-10.9v-98c0-8.3-3.6-9.9-8-11zm42 69.8c20.6 0 32.8-14.2 32.8-34.7 0-19.9-12.2-33.5-32.8-33.5l-23.5 0.2v68z"/>
		<path id="&lt;Compound Path&gt;" class="s0" d="m881.7 289.1v-98c0-8.3-3.5-9.9-7.9-11v-1.7h83l2.6 25.4h-1.7c-3-14.7-9.9-23.7-34.2-23.7h-31.2v57.7h34.2c11.1 0 12.8-6 13.7-12h1.8v25.7h-1.8c-0.9-6-2.6-12-13.7-12h-34.2v60.5h33.6c24.4 0 31.2-9 34.2-23.6h1.8l-2.6 25.4h-85.5v-1.8c4.4-1.1 7.9-2.7 7.9-10.9z"/>
		<path id="&lt;Compound Path&gt;" class="s0" d="m999.6 178.4l76.3 105.4v-92.7c0-8.3-3.5-9.9-7.9-11v-1.7h17.6v1.7c-4.4 1.1-7.9 2.7-7.9 11v110.7h-1.8l-82.3-113.7v101c0 8.2 3.6 9.8 8 10.9v1.8h-17.7v-1.8c4.4-1.1 8-2.7 8-10.9v-98c0-8.3-3.6-9.9-8-11v-1.7z"/>
		<path id="&lt;Compound Path&gt;" fill-rule="evenodd" class="s0" d="m1154.2 178.4c32.4 0 56.6 25.7 56.6 61 0 35.2-22.2 62.4-56.6 62.4h-43v-1.8c4.4-1.1 7.9-2.7 7.9-10.9v-98c0-8.3-3.5-9.9-7.9-11v-1.7zm-1.6 121.6c26.3 0 47.6-28.7 47.6-60.6 0-31.9-21.3-59.3-47.6-59.3h-22.9v119.9z"/>
		<path id="&lt;Compound Path&gt;" fill-rule="evenodd" class="s0" d="m1221.4 300c4.4-1.1 8.4-2.8 11.8-11.3l44-110.3h2l46 110.3c3.5 8.5 5.6 10.2 10 11.3v1.8h-26.1v-1.8c5-0.5 8.2-2.8 4.6-11.3l-12.7-30.7h-53.7l-12.4 31.1c-3.3 8.4 2 10.7 6.4 10.9v1.8h-19.9zm26.6-43.8h52.2l-26.7-63.9z"/>
		<path id="&lt;Compound Path&gt;" class="s0" d="m1413.7 289.1l12-98c1-8.3-3.6-9.9-8-11v-1.7h17.7l39.1 107.3 38.6-107.3h17.1v1.7c-4.4 1.1-9 2.7-7.9 11l11.9 98c1.1 8.2 3.6 9.8 8 10.9v1.8h-26.5v-1.8c4.4-1.1 9-2.7 8-10.9l-12.2-101-40.7 113.7h-2l-41.4-113.7-12 101c-1 8.2 3.6 9.8 8 10.9v1.8h-17.6v-1.8c4.4-1.1 6.8-2.7 7.9-10.9z"/>
		<path id="&lt;Compound Path&gt;" fill-rule="evenodd" class="s0" d="m1557.2 300c4.4-1.1 8.4-2.8 11.8-11.3l44-110.3h2l46 110.3c3.5 8.5 5.6 10.2 10 11.3v1.8h-26.1v-1.8c5-0.5 8.1-2.8 4.6-11.3l-12.7-30.7h-53.7l-12.4 31.1c-3.3 8.4 2 10.7 6.4 10.9v1.8h-19.9zm26.6-43.8h52.2l-26.7-63.9z"/>
		<path id="&lt;Compound Path&gt;" fill-rule="evenodd" class="s0" d="m1690.4 178.4h43.6c23.9 0 41.7 13.2 41.7 35.1 0 18.8-12.1 31.9-30.6 35.4 8.4 1.7 15.3 6.9 20.9 20.2l8.1 20c3 7.4 8.3 9.8 12.7 10.9v1.8h-19c0 0-1.9-4.8-5.1-12.7l-5.6-14.1c-6.9-17.3-12.7-25.1-28.3-25.1h-19.9v39.2c0 8.2 3.6 9.8 8 10.9v1.8h-26.5v-1.8c4.4-1.1 8-2.7 8-10.9v-98c0-8.3-3.6-9.9-8-11zm42 69.8c20.6 0 32.8-14.2 32.8-34.7 0-19.9-12.2-33.5-32.8-33.5l-23.5 0.2v68z"/>
		<path id="&lt;Compound Path&gt;" class="s0" d="m1799.2 203.8l2.6-25.4h90.6l2.7 25.4h-1.8c-3-14.7-9.9-23.7-34.2-23.7h-6.7v23.7l-0.2 85.3c0 8.2 3.6 9.8 8 10.9v1.8h-26.5v-1.8c4.4-1.1 8-2.7 8-10.9l0.1-85.3v-23.7h-6.5c-24.3 0-31.4 9-34.4 23.7z"/>
		<path id="&lt;Compound Path&gt;" class="s0" d="m1918 178.4h26.4v1.7c-4.4 1.1-7.9 2.7-7.9 11v98c0 8.2 3.5 9.8 7.9 10.9v1.8h-26.4v-1.8c4.4-1.1 7.9-2.7 7.9-10.9v-98c0-8.3-3.5-9.9-7.9-11z"/>
		<path id="&lt;Compound Path&gt;" class="s0" d="m1985.7 178.4l76.3 105.4v-92.7c0-8.3-3.5-9.9-7.9-11v-1.7h17.6v1.7c-4.4 1.1-7.9 2.7-7.9 11v110.7h-1.8l-82.3-113.7v101c0 8.2 3.5 9.8 7.9 10.9v1.8h-17.6v-1.8c4.4-1.1 7.9-2.7 7.9-10.9v-98c0-8.3-3.5-9.9-7.9-11v-1.7z"/>
		<path id="&lt;Compound Path&gt;" class="s0" d="m2094.6 291.4c0 0.1 0-24.2 0-24.2h1.6c3.2 10.2 10.4 34.6 41.6 34.6 20.1 0 37.9-9.6 37.9-24.4 0-33.5-79.5-28.9-79.5-65.9 0-20.8 15.5-34.9 41.6-34.9 16.2 0 30.8 9 37.4 13.1v20.4c0 0-1.5 0-1.6 0-1.6-4.6-11.8-31.7-35.8-31.7-20.6 0-34 10.4-34 25.7 0 33.5 79.5 28.9 79.5 65.9 0 19.4-15.4 33.5-45.5 33.5-33.9 0-43.2-12.1-43.2-12.1z"/>
	</g>
	<g id="&lt;Group&gt;">
		<g id="&lt;Group&gt;">
			<path id="&lt;Compound Path&gt;" fill-rule="evenodd" class="s1" d="m369.4 302.2c0 12.1-8.9 19-26.5 19h-32v-71.8h30c15.3 0 24.7 6.5 24.7 18.4 0 8.5-4.8 14-12 16.4 10.1 1.9 15.8 8.1 15.8 18zm-53.2-48.3v28.6h24.5c12.4 0 19.5-4.8 19.5-14.3 0-9.4-7.1-14.3-19.5-14.3zm47.9 47.9c0-10.2-7.5-14.8-21.2-14.8h-26.7v29.7h26.7c13.7 0 21.2-4.6 21.2-14.9z"/>
			<path id="&lt;Compound Path&gt;" class="s1" d="m455.8 321.2l-0.1-61.4-30 51.8h-2.5l-30.1-51.6v61.2h-5.1v-71.8h4.4l32.1 55.5 32.1-55.5h4.3l0.1 71.8z"/>
		</g>
		<g id="&lt;Group&gt;">
			<path id="&lt;Path&gt;" class="s2" d="m242.6 62.5v138.1h42v-181.6h93.3c67.3 0 108 42.1 108 108 0 29.5-8.2 54.7-23.3 73.6h36.8c16.3-19.3 25.1-44.3 25.1-73.6 0-72.2-56.1-115-140.3-115h-173.2v7c17.5 4.2 31.6 10.5 31.6 43.5z"/>
			<path id="&lt;Path&gt;" class="s2" d="m518.8 367.3c0 1 0 2 0 3 0 73.7-54 125.6-141.6 125.6h-92.6v-128.6h-42v85.1c0 32.9-14.1 39.2-31.6 43.5v7h172.5c119.2 0 177.4-48.4 177.4-132.6 0-1 0-2 0-3z"/>
		</g>
	</g>
</svg>